<?xml version="1.0" standalone="no"?>
<!DOCTYPE svg PUBLIC "-//W3C//DTD SVG 20010904//EN"
 "http://www.w3.org/TR/2001/REC-SVG-20010904/DTD/svg10.dtd">
<svg version="1.0" xmlns="http://www.w3.org/2000/svg"
 width="2024.000000pt" height="2024.000000pt" viewBox="0 0 1024.000000 1024.000000"
 preserveAspectRatio="xMidYMid meet">

<g transform="translate(0.000000,1024.000000) scale(0.100000,-0.100000)"
fill="#000000" stroke="none">
<path d="M4372 6584 c-17 -9 -52 -34 -77 -56 -85 -75 -80 -31 -83 -675 l-3
-573 -32 1 c-72 3 -91 12 -100 49 -11 46 -11 52 -2 73 6 14 2 17 -19 17 -18 0
-24 4 -20 15 4 8 1 15 -5 15 -15 0 -14 30 2 31 6 0 2 4 -9 9 -18 7 -23 19 -26
62 -3 29 -1 57 4 63 12 13 10 27 -3 19 -7 -4 -9 0 -6 12 5 17 10 100 8 132 -1
6 -9 12 -20 12 -17 0 -19 12 -27 133 -6 108 -9 124 -15 87 -28 -167 16 -450
96 -627 18 -39 36 -86 40 -103 7 -33 84 -151 166 -255 45 -58 171 -178 254
-242 115 -89 419 -218 578 -245 101 -17 363 -15 467 5 77 14 200 52 200 62 0
3 -121 3 -270 1 -148 -2 -270 0 -270 4 0 4 -12 11 -27 14 -16 4 -44 11 -63 15
-24 6 -28 9 -12 10 27 1 30 31 2 32 -33 2 -38 4 -46 12 -4 4 20 7 54 7 33 0
64 5 67 10 4 7 -72 9 -229 8 -129 -2 -232 0 -228 4 4 3 291 7 637 9 l630 2 41
23 c91 51 97 50 -328 57 -215 4 -471 7 -568 7 -146 0 -184 3 -216 17 -38 17
-39 17 -11 21 37 5 34 16 -4 19 -17 1 -38 8 -47 15 -12 10 -14 10 -8 1 4 -7 3
-13 -3 -13 -5 0 -11 5 -13 11 -5 15 -51 18 -60 4 -5 -6 -8 -3 -8 6 0 23 -145
42 -297 37 -67 -1 -119 0 -115 4 4 4 430 8 948 10 1019 3 962 0 983 59 l10 29
-682 0 c-1026 0 -1285 8 -1250 40 3 3 8 -1 10 -7 3 -9 23 -12 56 -11 l52 2
-47 3 c-43 4 -48 7 -48 29 0 15 -6 24 -15 24 -8 0 -15 5 -15 10 0 6 -18 10
-41 10 -32 0 -40 -3 -35 -15 3 -9 0 -15 -9 -15 -8 0 -15 4 -15 8 0 5 -16 17
-35 28 -19 10 -35 22 -35 26 0 5 555 8 1234 8 679 0 1241 2 1248 5 12 5 14 42
11 218 -3 117 -1 253 4 302 l8 90 58 3 c31 2 57 7 57 12 0 6 -7 10 -15 10 -8
0 -15 6 -15 13 0 8 -4 7 -10 -3 -9 -13 -11 -13 -20 0 -9 13 -11 13 -21 0 -9
-13 -10 -12 -5 3 3 9 1 17 -4 17 -6 0 -10 8 -10 17 0 10 -12 28 -27 41 -24 21
-36 23 -86 20 -83 -6 -98 -38 -52 -106 25 -36 25 -40 25 -237 0 -110 -3 -224
-6 -252 l-7 -53 -83 0 c-53 0 -85 4 -90 12 -4 6 -8 170 -8 362 -1 387 0 378
-67 445 -62 63 -74 65 -384 62 -154 -2 -281 -3 -281 -4 -1 -1 -4 -48 -7 -104
l-6 -101 247 -4 c282 -4 288 -5 347 -86 64 -88 63 -156 -3 -226 l-27 -28 -472
3 -473 4 0 191 0 192 -32 48 c-19 27 -54 62 -82 79 l-49 30 -247 3 -247 4 0
111 c1 65 -4 130 -11 156 -17 55 -78 122 -114 124 -50 3 -5 29 64 37 l63 7
-90 1 c-64 1 -99 -3 -123 -14z m-25 -301 c-2 -16 -4 -3 -4 27 0 30 2 43 4 28
2 -16 2 -40 0 -55z m6 -128 c4 -8 2 -17 -3 -20 -6 -4 -10 3 -10 14 0 25 6 27
13 6z m542 -62 c-142 -7 -422 -7 -412 -1 7 4 116 7 242 6 127 -1 203 -3 170
-5z m131 -24 c18 -11 43 -37 56 -57 21 -34 23 -51 27 -190 4 -199 2 -203 -107
-200 l-77 2 65 3 c36 2 68 7 73 12 19 19 27 188 9 218 -11 17 -11 22 0 26 11
5 11 7 0 15 -8 5 -11 21 -9 38 2 16 -3 39 -11 51 -8 13 -12 29 -9 37 6 15 -30
45 -68 58 -19 6 -19 6 -1 7 10 1 34 -8 52 -20z m-559 -445 c-3 -3 -12 -4 -19
-1 -8 3 -5 6 6 6 11 1 17 -2 13 -5z m643 -232 l0 -112 -390 1 -390 2 0 46 c0
25 -3 75 -6 111 l-6 65 396 0 396 0 0 -113z m404 94 c7 -26 8 -180 1 -198 -4
-10 -36 -12 -145 -10 l-140 3 0 112 0 112 139 1 c134 1 140 0 145 -20z m744
-93 l-3 -108 -306 -3 -306 -2 -7 31 c-3 17 -6 67 -6 110 l0 79 315 0 316 0 -3
-107z m-21 -419 c-3 -3 -12 -4 -19 -1 -8 3 -5 6 6 6 11 1 17 -2 13 -5z m-1490
-129 c-4 -8 -14 -14 -24 -14 -17 1 -17 2 0 6 9 2 17 12 17 20 0 9 3 14 6 10 4
-3 4 -13 1 -22z m67 -7 c12 3 18 2 15 -2 -12 -13 -66 -13 -66 0 0 9 5 10 15 5
8 -5 24 -6 36 -3z m70 -7 c3 -4 -6 -6 -19 -3 -14 2 -25 6 -25 8 0 8 39 4 44
-5z"/>
<path d="M6268 6573 c7 -3 16 -2 19 1 4 3 -2 6 -13 5 -11 0 -14 -3 -6 -6z"/>
<path d="M5906 6548 c-37 -52 0 -103 82 -112 33 -4 52 -3 52 4 0 5 -22 10 -50
10 -74 0 -112 46 -76 92 9 12 31 18 77 21 l64 3 -67 2 c-59 2 -69 -1 -82 -20z"/>
<path d="M6323 6540 c20 -23 26 -38 21 -54 -11 -35 -24 -45 -67 -49 l-42 -4
44 1 c35 1 48 6 64 28 18 24 18 30 7 58 -7 17 -22 36 -34 42 -17 9 -16 5 7
-22z"/>
<path d="M5622 6390 c0 -19 2 -27 5 -17 2 9 2 25 0 35 -3 9 -5 1 -5 -18z"/>
<path d="M5623 6225 c0 -27 2 -38 4 -22 2 15 2 37 0 50 -2 12 -4 0 -4 -28z"/>
<path d="M5368 5953 c34 -2 90 -2 125 0 34 2 6 3 -63 3 -69 0 -97 -1 -62 -3z"/>
<path d="M6738 5923 c7 -3 16 -2 19 1 4 3 -2 6 -13 5 -11 0 -14 -3 -6 -6z"/>
<path d="M6878 5923 c23 -2 42 -9 42 -16 0 -7 4 -6 10 3 6 9 10 10 10 3 0 -6
-5 -15 -10 -18 -6 -4 -8 -11 -4 -16 3 -5 9 -7 12 -5 4 2 7 -7 6 -22 -1 -30
-21 -40 -79 -41 l-41 -1 0 -262 c-1 -145 -4 -277 -8 -294 -10 -45 12 -64 75
-64 32 0 50 4 50 13 1 6 3 147 3 312 1 165 5 315 10 332 5 18 5 44 2 58 -6 23
-10 25 -64 23 -50 -1 -51 -2 -14 -5z"/>
<path d="M5260 5724 l0 -71 38 -7 c76 -12 78 -10 33 40 -24 25 -49 59 -56 77
-14 31 -14 30 -15 -39z"/>
<path d="M7194 4326 c-38 -38 -43 -70 -19 -116 37 -71 98 -79 156 -21 44 43
49 71 21 114 -45 68 -104 77 -158 23z m107 -15 c49 -50 34 -109 -32 -126 -31
-8 -65 18 -74 56 -5 21 0 35 25 63 18 20 36 36 42 36 5 0 23 -13 39 -29z"/>
<path d="M7236 4294 c-23 -22 -21 -64 3 -64 10 0 24 7 31 15 16 20 29 10 24
-18 -4 -20 -4 -20 4 -2 10 23 6 42 -16 68 -19 21 -26 21 -46 1z"/>
<path d="M3438 3944 c-2 -170 0 -319 4 -331 7 -21 14 -23 72 -23 75 0 76 1 76
103 l0 72 82 -3 c129 -6 179 9 242 73 60 59 76 95 76 169 -1 94 -57 174 -155
217 -43 19 -73 23 -222 27 l-171 5 -4 -309z m366 132 c56 -42 57 -94 3 -153
-19 -21 -30 -23 -119 -23 l-98 0 0 106 0 107 90 -5 c77 -5 95 -9 124 -32z"/>
<path d="M4356 4234 c-9 -8 -16 -21 -16 -27 0 -7 -18 -44 -41 -82 -36 -62 -78
-151 -194 -415 -57 -129 -59 -121 26 -118 l74 3 27 70 c23 60 30 70 50 68 13
-1 83 -5 157 -9 l133 -7 29 -64 28 -63 77 0 77 0 -6 28 c-6 28 -271 597 -289
620 -15 18 -113 16 -132 -4z m76 -203 c30 -42 80 -166 71 -175 -4 -3 -48 -6
-100 -6 -112 0 -113 2 -52 105 23 39 41 80 41 93 1 31 9 27 40 -17z"/>
<path d="M4955 4239 c-3 -8 -4 -156 -3 -329 l3 -315 67 -3 c60 -3 67 -1 73 18
4 12 4 102 1 201 -4 98 -5 179 -3 179 4 0 32 -33 220 -267 l98 -123 59 0 60 0
0 319 0 319 -70 4 -70 3 0 -187 c0 -119 -4 -188 -10 -188 -5 0 -10 4 -10 8 0
15 -122 158 -223 261 -92 93 -106 104 -144 109 -31 3 -44 1 -48 -9z"/>
<path d="M5722 4178 l3 -73 93 3 92 4 0 -239 c0 -131 3 -248 6 -260 6 -21 12
-23 74 -23 57 0 69 3 73 18 3 9 4 127 3 262 l-1 245 108 -3 107 -3 0 70 0 71
-280 0 -281 0 3 -72z"/>
<path d="M6660 4237 c-102 -29 -204 -126 -235 -222 -67 -213 87 -427 308 -427
101 -1 155 16 198 62 20 21 44 40 54 42 10 2 27 27 41 62 13 33 32 68 42 79
13 15 17 36 16 91 -1 177 -129 310 -311 322 -39 2 -87 -2 -113 -9z m169 -147
c105 -53 143 -188 77 -274 -47 -63 -83 -81 -157 -81 -86 0 -130 28 -182 116
-54 90 -49 121 32 200 l61 59 65 0 c46 0 78 -6 104 -20z"/>
<path d="M4170 3273 c0 -95 1 -103 19 -103 15 0 21 8 23 32 2 24 9 34 23 36
54 8 65 13 65 32 0 17 -7 20 -45 20 -38 0 -45 3 -45 19 0 17 8 20 53 23 43 2
52 6 55 23 3 18 -3 20 -73 20 l-75 0 0 -102z"/>
<path d="M4413 3305 c11 -124 50 -168 116 -129 40 24 51 53 51 135 0 62 -2 70
-17 67 -15 -3 -18 -13 -15 -65 3 -52 0 -65 -18 -83 -12 -12 -31 -20 -43 -18
-20 3 -22 10 -25 78 -3 73 -10 90 -41 90 -11 0 -13 -14 -8 -75z"/>
<path d="M4704 3371 c5 -7 8 -55 7 -107 0 -74 3 -94 14 -94 7 0 19 16 25 36
14 42 28 40 54 -9 12 -22 27 -37 38 -37 22 0 22 8 3 34 -19 25 -19 50 0 66 21
18 19 62 -5 88 -15 16 -32 22 -65 22 -24 0 -51 3 -61 7 -12 4 -15 3 -10 -6z
m114 -56 c8 -7 -11 -38 -26 -43 -13 -4 -52 33 -52 49 0 12 66 6 78 -6z"/>
<path d="M4972 3273 c3 -92 5 -108 20 -111 14 -3 18 7 20 63 l3 66 49 -66 c28
-36 53 -65 57 -65 9 0 23 196 14 209 -3 6 -15 11 -27 11 -19 0 -20 -4 -14 -50
4 -27 3 -50 -1 -50 -4 0 -27 23 -51 50 -66 76 -73 70 -70 -57z"/>
<path d="M5680 3311 c0 -38 4 -81 10 -95 13 -35 61 -59 94 -46 36 13 47 42 53
131 6 76 5 79 -16 79 -17 0 -21 -6 -21 -34 0 -66 -13 -128 -28 -134 -28 -10
-52 35 -52 98 0 54 -8 70 -36 70 -2 0 -4 -31 -4 -69z"/>
<path d="M6230 3268 c0 -96 2 -109 16 -104 9 3 42 6 75 6 52 0 59 2 59 20 0
18 -7 20 -56 20 -47 0 -55 3 -52 18 2 12 14 18 41 20 50 4 49 35 -1 40 -26 3
-32 7 -32 28 0 23 3 24 56 24 45 0 55 3 52 15 -2 12 -21 17 -80 19 l-78 4 0
-110z"/>
<path d="M5256 3318 c-11 -100 -8 -124 19 -142 l25 -16 0 105 c0 96 -2 105
-19 105 -15 0 -19 -10 -25 -52z"/>
<path d="M5414 3354 c3 -9 6 -20 6 -25 0 -5 11 -9 25 -9 24 0 25 -2 25 -75 0
-60 3 -75 15 -75 12 0 15 16 15 80 l0 80 26 -6 c28 -7 46 9 37 33 -4 9 -27 13
-80 13 -64 0 -74 -2 -69 -16z"/>
<path d="M5960 3270 c0 -93 1 -100 20 -100 17 0 20 7 20 42 l0 43 43 -48 c55
-59 91 -66 53 -11 l-25 37 25 32 c29 39 30 59 4 85 -16 16 -33 20 -80 20 l-60
0 0 -100z m88 64 c24 -7 32 -49 10 -56 -24 -8 -56 5 -62 25 -9 35 4 43 52 31z"/>
<path d="M3464 3296 c-3 -8 -4 -23 -2 -33 4 -23 82 -28 276 -18 129 7 132 8
132 30 0 32 -18 35 -223 35 -146 0 -179 -3 -183 -14z"/>
<path d="M6672 3278 l3 -33 185 -7 c103 -4 189 -3 194 2 4 4 4 20 -1 37 l-10
28 -187 3 -187 2 3 -32z"/>
</g>
</svg>
